<?xml version="1.0" standalone="no"?>
<!DOCTYPE svg PUBLIC "-//W3C//DTD SVG 20010904//EN"
 "http://www.w3.org/TR/2001/REC-SVG-20010904/DTD/svg10.dtd">
<svg version="1.0" xmlns="http://www.w3.org/2000/svg"
 width="1280.000000pt" height="1070.000000pt" viewBox="0 0 1280.000000 1070.000000"
 preserveAspectRatio="xMidYMid meet">
<metadata>
Created by potrace 1.15, written by Peter Selinger 2001-2017
</metadata>
<g transform="translate(0.000000,1070.000000) scale(0.100000,-0.100000)"
fill="#000000" stroke="none">
<path d="M5762 10632 c-29 -151 -113 -303 -237 -427 -129 -129 -269 -206 -442
-241 -105 -22 -309 -15 -408 15 -172 50 -352 173 -454 308 -59 79 -124 206
-142 278 -6 28 -15 54 -20 59 -22 24 -672 -169 -931 -277 l-37 -15 18 -49 c32
-82 44 -182 39 -309 -4 -100 -10 -134 -37 -213 -55 -163 -146 -295 -275 -399
-87 -70 -228 -143 -331 -172 -130 -37 -306 -21 -465 42 -79 31 -218 118 -259
162 -32 34 -40 33 -81 -9 l-34 -35 -32 31 -33 32 -115 -107 c-111 -104 -261
-261 -379 -397 l-57 -66 54 -47 c166 -141 277 -365 292 -589 28 -416 -280
-804 -711 -893 -67 -14 -82 -14 -152 0 -43 8 -88 18 -101 22 -18 5 -24 2 -29
-15 -7 -26 -32 -27 -126 -2 -47 12 -70 14 -73 7 -26 -74 -82 -270 -114 -399
-35 -142 -95 -457 -88 -462 2 0 41 -8 88 -17 300 -56 556 -262 668 -538 44
-108 56 -179 56 -315 0 -133 -19 -221 -74 -341 -105 -233 -351 -431 -600 -485
-30 -7 -56 -13 -58 -14 -4 -3 53 -225 81 -315 27 -85 12 -78 149 -65 71 7 78
6 78 -10 0 -12 5 -15 18 -10 9 4 55 9 102 12 71 4 99 1 173 -21 346 -102 592
-384 637 -729 34 -254 -79 -555 -270 -719 l-48 -41 101 -121 c55 -67 193 -212
305 -324 l205 -203 33 32 34 33 39 -38 40 -39 80 74 c130 122 275 194 446 224
172 30 282 13 450 -70 413 -203 594 -665 426 -1084 -12 -29 -20 -55 -19 -56 7
-6 234 -86 363 -128 172 -56 285 -88 437 -125 l117 -29 21 71 c141 465 635
723 1100 574 155 -49 303 -150 407 -278 87 -106 183 -322 183 -410 0 -25 -11
-26 230 17 240 42 600 137 600 158 0 5 -7 35 -15 65 -22 78 -30 241 -16 328
43 278 218 510 486 645 39 19 94 42 123 50 l52 16 -12 -22 c-21 -41 -123 -132
-181 -162 -47 -25 -56 -34 -51 -50 17 -58 84 -216 141 -332 l65 -132 49 24
c294 149 661 -23 744 -350 38 -148 5 -305 -93 -439 l-36 -49 35 -30 c62 -53
212 -163 303 -222 l90 -58 18 24 c60 79 88 106 148 144 98 64 175 87 290 87
155 1 287 -56 388 -166 96 -106 148 -247 140 -383 l-5 -72 66 -10 c115 -19
203 -29 309 -37 l102 -7 0 44 c0 90 49 213 118 297 51 62 151 130 235 160 97
34 221 36 322 4 139 -42 258 -145 318 -274 29 -62 34 -68 57 -63 82 19 490
204 490 222 0 3 -12 36 -26 72 -20 48 -28 90 -32 157 -9 165 37 286 152 399
116 114 245 163 403 152 99 -6 161 -26 247 -78 37 -22 71 -37 75 -32 48 54
140 177 203 271 l78 117 -28 19 c-43 31 -118 113 -145 159 -94 159 -95 366 -4
527 62 110 186 206 316 244 32 9 91 16 142 16 l87 0 16 107 c33 224 45 455 30
613 l-6 65 -72 1 c-142 2 -274 61 -373 168 -154 164 -186 386 -86 594 34 71
149 188 218 222 28 14 52 26 54 27 6 3 -123 245 -183 341 -44 70 -62 92 -75
88 -9 -3 -50 -17 -91 -32 -101 -37 -233 -39 -332 -5 -281 95 -430 389 -338
666 11 33 28 73 38 90 l18 30 -51 37 c-61 44 -201 128 -306 186 l-76 42 -31
-49 c-41 -63 -141 -155 -200 -185 -111 -56 -264 -73 -381 -41 -226 60 -391
271 -391 501 l0 61 -39 7 c-74 12 -327 19 -422 12 l-96 -8 -6 -67 c-3 -37 -15
-94 -26 -126 -22 -62 -80 -165 -93 -165 -5 0 -5 33 -2 73 24 270 166 504 397
654 89 58 163 90 270 118 48 12 88 24 89 26 7 28 -60 376 -108 559 -59 221
-211 651 -241 681 -5 5 -39 -3 -76 -16 -87 -32 -96 -31 -109 6 -8 22 -15 28
-27 23 -67 -28 -168 -57 -233 -67 -64 -9 -89 -8 -151 5 -285 62 -533 266 -641
527 -45 106 -60 188 -59 316 1 233 76 413 245 590 l68 72 -124 120 c-131 127
-311 282 -439 378 l-78 58 -24 -23 -24 -23 -39 31 -39 31 -29 -30 c-49 -51
-145 -125 -214 -162 -143 -78 -259 -108 -422 -108 -94 0 -120 4 -200 31 -114
38 -196 83 -291 160 -238 192 -357 507 -302 796 8 43 14 78 12 79 -12 8 -309
91 -407 115 -112 26 -326 68 -435 84 l-41 6 -12 -68z m-507 -3212 c226 -22
407 -71 603 -165 514 -247 854 -710 922 -1259 16 -126 7 -348 -19 -477 -195
-962 -1238 -1538 -2210 -1218 -256 84 -470 217 -666 413 -231 232 -367 478
-437 787 -20 91 -23 131 -23 314 0 295 33 444 155 690 275 557 849 909 1505
924 33 0 110 -4 170 -9z m4645 -3470 c163 -18 310 -69 444 -154 76 -50 207
-175 261 -251 280 -392 234 -921 -109 -1260 -128 -128 -281 -212 -463 -257
-102 -25 -296 -30 -400 -9 -315 61 -585 271 -714 556 -102 226 -116 485 -39
716 122 360 451 621 830 658 47 5 87 9 90 9 3 1 48 -3 100 -8z"/>
</g>
</svg>
