<?xml version="1.0" encoding="UTF-8" standalone="yes"?>
<svg xmlns="http://www.w3.org/2000/svg" viewBox="0 0 64 64" width="64" height="64" fill="#000000">
  <path d="M 5 4 C 3.351563 4 2 5.351563 2 7 L 2 13 C 2 14.511719 3.121094 15.761719 4.570313 15.96875 L 26.152344 36.609375 C 26.710938 37.148438 27.039063 37.871094 27.070313 38.652344 L 28 59.5 C 28.03125 60.179688 28.402344 60.789063 28.980469 61.140625 C 29.300781 61.320313 29.640625 61.410156 29.988281 61.410156 C 30.300781 61.410156 30.609375 61.339844 30.890625 61.199219 L 36.347656 58.4375 C 38.691406 61.800781 42.589844 64 47 64 C 54.171875 64 60 58.171875 60 51 C 60 43.828125 54.171875 38 47 38 C 43.898438 38 41.039063 39.101563 38.800781 40.910156 L 38.921875 38.539063 C 38.960938 37.820313 39.25 37.128906 39.75 36.609375 L 59.460938 15.960938 C 60.902344 15.742188 62 14.5 62 13 L 62 7 C 62 5.351563 60.648438 4 59 4 Z M 5 6 L 59 6 C 59.550781 6 60 6.449219 60 7 L 60 13 C 60 13.550781 59.550781 14 59 14 C 58.730469 14 58.46875 14.109375 58.28125 14.3125 L 38.300781 35.230469 C 38.082031 35.46875 37.882813 35.730469 37.710938 36 L 28.21875 36 C 28.019531 35.699219 27.800781 35.421875 27.53125 35.171875 L 7.492188 16 L 47 16 C 47.550781 16 48 15.550781 48 15 C 48 14.449219 47.550781 14 47 14 L 5 14 C 4.449219 14 4 13.550781 4 13 L 4 7 C 4 6.449219 4.449219 6 5 6 Z M 7 8 C 6.449219 8 6 8.445313 6 9 L 6 11 C 6 11.554688 6.449219 12 7 12 C 7.550781 12 8 11.554688 8 11 L 8 9 C 8 8.445313 7.550781 8 7 8 Z M 12 8 C 11.449219 8 11 8.445313 11 9 L 11 11 C 11 11.554688 11.449219 12 12 12 C 12.550781 12 13 11.554688 13 11 L 13 9 C 13 8.445313 12.550781 8 12 8 Z M 17 8 C 16.449219 8 16 8.445313 16 9 L 16 11 C 16 11.554688 16.449219 12 17 12 C 17.550781 12 18 11.554688 18 11 L 18 9 C 18 8.445313 17.550781 8 17 8 Z M 22 8 C 21.449219 8 21 8.445313 21 9 L 21 11 C 21 11.554688 21.449219 12 22 12 C 22.550781 12 23 11.554688 23 11 L 23 9 C 23 8.445313 22.550781 8 22 8 Z M 27 8 C 26.449219 8 26 8.445313 26 9 L 26 11 C 26 11.554688 26.449219 12 27 12 C 27.550781 12 28 11.554688 28 11 L 28 9 C 28 8.445313 27.550781 8 27 8 Z M 32 8 C 31.449219 8 31 8.445313 31 9 L 31 11 C 31 11.554688 31.449219 12 32 12 C 32.550781 12 33 11.554688 33 11 L 33 9 C 33 8.445313 32.550781 8 32 8 Z M 37 8 C 36.449219 8 36 8.445313 36 9 L 36 11 C 36 11.554688 36.449219 12 37 12 C 37.550781 12 38 11.554688 38 11 L 38 9 C 38 8.445313 37.550781 8 37 8 Z M 42 8 C 41.449219 8 41 8.445313 41 9 L 41 11 C 41 11.554688 41.449219 12 42 12 C 42.550781 12 43 11.554688 43 11 L 43 9 C 43 8.445313 42.550781 8 42 8 Z M 47 8 C 46.449219 8 46 8.445313 46 9 L 46 11 C 46 11.554688 46.449219 12 47 12 C 47.550781 12 48 11.554688 48 11 L 48 9 C 48 8.445313 47.550781 8 47 8 Z M 52 8 C 51.449219 8 51 8.445313 51 9 L 51 11 C 51 11.554688 51.449219 12 52 12 C 52.550781 12 53 11.554688 53 11 L 53 9 C 53 8.445313 52.550781 8 52 8 Z M 57 8 C 56.449219 8 56 8.445313 56 9 L 56 11 C 56 11.554688 56.449219 12 57 12 C 57.550781 12 58 11.554688 58 11 L 58 9 C 58 8.445313 57.550781 8 57 8 Z M 51 14 C 50.449219 14 50 14.445313 50 15 C 50 15.554688 50.449219 16 51 16 L 55 16 C 55.550781 16 56 15.554688 56 15 C 56 14.445313 55.550781 14 55 14 Z M 28.988281 38 L 36.988281 38 C 36.96875 38.148438 36.929688 38.289063 36.929688 38.4375 L 36.699219 43.078125 C 35.007813 45.28125 34 48.03125 34 51 C 34 53.050781 34.480469 54.992188 35.328125 56.71875 L 29.988281 59.410156 L 29.070313 38.5625 C 29.058594 38.371094 29.019531 38.191406 28.988281 38 Z M 47 40 C 53.070313 40 58 44.929688 58 51 C 58 57.070313 53.070313 62 47 62 C 43.199219 62 39.839844 60.070313 37.871094 57.128906 C 37.050781 55.921875 36.480469 54.550781 36.199219 53.070313 C 36.070313 52.398438 36 51.710938 36 51 C 36 49.898438 36.160156 48.847656 36.460938 47.847656 C 36.902344 46.347656 37.660156 44.988281 38.660156 43.828125 C 40.679688 41.488281 43.671875 40 47 40 Z M 42.757813 45.757813 C 42.503906 45.757813 42.246094 45.855469 42.050781 46.050781 C 41.660156 46.441406 41.660156 47.074219 42.050781 47.464844 L 45.585938 51 L 42.050781 54.535156 C 41.660156 54.925781 41.660156 55.558594 42.050781 55.949219 C 42.246094 56.144531 42.5 56.242188 42.757813 56.242188 C 43.015625 56.242188 43.269531 56.144531 43.464844 55.949219 L 47 52.414063 L 50.535156 55.949219 C 50.730469 56.144531 50.984375 56.242188 51.242188 56.242188 C 51.5 56.242188 51.753906 56.144531 51.949219 55.949219 C 52.339844 55.558594 52.339844 54.925781 51.949219 54.535156 L 48.414063 51 L 51.949219 47.464844 C 52.339844 47.074219 52.339844 46.441406 51.949219 46.050781 C 51.558594 45.660156 50.925781 45.660156 50.535156 46.050781 L 47 49.585938 L 43.464844 46.050781 C 43.269531 45.855469 43.011719 45.757813 42.757813 45.757813 Z"/>
</svg>
