<?xml version="1.0" encoding="UTF-8"?>
<svg xmlns="http://www.w3.org/2000/svg" xmlns:xlink="http://www.w3.org/1999/xlink" width="20pt" height="20pt" viewBox="0 0 20 20" version="1.1">
<g id="surface1">
<path style=" stroke:none;fill-rule:nonzero;fill:rgb(0%,0%,0%);fill-opacity:1;" d="M 12.332031 10 L 15.332031 7 C 16 6.332031 16 5.332031 15.332031 4.667969 C 14.667969 4 13.667969 4 13 4.667969 L 10 7.667969 L 7 4.667969 C 6.332031 4 5.332031 4 4.667969 4.667969 C 4 5.332031 4 6.332031 4.667969 7 L 7.667969 10 L 4.667969 13 C 4 13.667969 4 14.667969 4.667969 15.332031 C 5 15.667969 5.417969 15.832031 5.832031 15.832031 C 6.25 15.832031 6.667969 15.667969 7 15.332031 L 10 12.332031 L 13 15.332031 C 13.332031 15.667969 13.75 15.832031 14.167969 15.832031 C 14.582031 15.832031 15 15.667969 15.332031 15.332031 C 16 14.667969 16 13.667969 15.332031 13 Z M 12.332031 10 "/>
</g>
</svg>
