<?xml version="1.0" encoding="UTF-8"?>
<svg xmlns="http://www.w3.org/2000/svg" xmlns:xlink="http://www.w3.org/1999/xlink" width="15pt" height="15pt" viewBox="0 0 15 15" version="1.1">
<g id="surface1">
<path style=" stroke:none;fill-rule:nonzero;fill:rgb(0%,0%,0%);fill-opacity:1;" d="M 7.683594 1.316406 C 6.253906 1.546875 5.03125 2.425781 4.375 3.71875 C 4.179688 4.09375 4.019531 4.566406 3.941406 4.96875 C 3.871094 5.347656 3.871094 6.242188 3.941406 6.601562 C 4.019531 7 4.195312 7.511719 4.375 7.851562 L 4.535156 8.152344 L 3.003906 9.691406 C 1.230469 11.472656 1.316406 11.367188 1.316406 11.847656 C 1.316406 12.109375 1.320312 12.15625 1.390625 12.296875 C 1.480469 12.480469 1.722656 12.710938 1.902344 12.792969 C 2.011719 12.84375 2.082031 12.855469 2.328125 12.863281 C 2.8125 12.863281 2.703125 12.945312 4.484375 11.175781 L 6.019531 9.640625 L 6.328125 9.808594 C 6.667969 9.980469 7.070312 10.125 7.503906 10.222656 C 7.753906 10.273438 7.871094 10.285156 8.386719 10.285156 C 8.902344 10.285156 9.027344 10.273438 9.277344 10.222656 C 11.101562 9.820312 12.417969 8.511719 12.820312 6.683594 C 12.878906 6.449219 12.882812 6.328125 12.882812 5.785156 C 12.882812 5.246094 12.878906 5.128906 12.820312 4.886719 C 12.433594 3.082031 11.09375 1.742188 9.308594 1.351562 C 8.949219 1.277344 8.058594 1.253906 7.683594 1.316406 Z M 8.75 2.605469 C 9.492188 2.695312 10.117188 3 10.644531 3.53125 C 11.113281 3.988281 11.390625 4.507812 11.535156 5.164062 C 11.597656 5.433594 11.601562 6.074219 11.542969 6.339844 C 11.289062 7.667969 10.320312 8.652344 8.992188 8.929688 C 8.683594 8.996094 8.09375 8.996094 7.78125 8.929688 C 7.140625 8.792969 6.601562 8.507812 6.144531 8.058594 C 5.867188 7.777344 5.695312 7.546875 5.53125 7.210938 C 5.289062 6.730469 5.199219 6.332031 5.199219 5.785156 C 5.199219 5.382812 5.222656 5.183594 5.335938 4.832031 C 5.792969 3.375 7.257812 2.417969 8.75 2.605469 Z M 8.75 2.605469 "/>
<path style=" stroke:none;fill-rule:nonzero;fill:rgb(0%,0%,0%);fill-opacity:1;" d="M 8.570312 3.375 C 8.507812 3.402344 8.425781 3.460938 8.382812 3.503906 C 8.121094 3.792969 8.265625 4.277344 8.648438 4.375 C 9.199219 4.515625 9.628906 4.925781 9.789062 5.460938 C 9.847656 5.671875 9.933594 5.792969 10.078125 5.859375 C 10.300781 5.972656 10.535156 5.9375 10.707031 5.757812 C 10.898438 5.550781 10.894531 5.25 10.691406 4.832031 C 10.234375 3.898438 9.109375 3.125 8.570312 3.375 Z M 8.570312 3.375 "/>
</g>
</svg>
