<?xml version="1.0" encoding="UTF-8"?>
<svg xmlns="http://www.w3.org/2000/svg" xmlns:xlink="http://www.w3.org/1999/xlink" width="100pt" height="100pt" viewBox="0 0 100 100" version="1.1">
<defs>
<linearGradient id="linear0" gradientUnits="userSpaceOnUse" x1="16" y1="256" x2="496" y2="256" gradientTransform="matrix(0.194793,0,0,0.194793,0,0)">
<stop offset="0" style="stop-color:rgb(83.529412%,58.823529%,19.607843%);stop-opacity:1;"/>
<stop offset="0.0068" style="stop-color:rgb(84.313725%,60.784314%,19.607843%);stop-opacity:1;"/>
<stop offset="0.0456" style="stop-color:rgb(87.45098%,70.588235%,20.392157%);stop-opacity:1;"/>
<stop offset="0.0893" style="stop-color:rgb(90.196078%,78.039216%,20.784314%);stop-opacity:1;"/>
<stop offset="0.1397" style="stop-color:rgb(91.764706%,83.529412%,20.784314%);stop-opacity:1;"/>
<stop offset="0.2032" style="stop-color:rgb(92.941176%,86.666667%,21.176471%);stop-opacity:1;"/>
<stop offset="0.3214" style="stop-color:rgb(93.333333%,87.45098%,21.176471%);stop-opacity:1;"/>
<stop offset="0.8061" style="stop-color:rgb(93.333333%,87.45098%,21.176471%);stop-opacity:1;"/>
<stop offset="0.879" style="stop-color:rgb(92.941176%,86.666667%,21.176471%);stop-opacity:1;"/>
<stop offset="0.917" style="stop-color:rgb(92.156863%,83.529412%,20.784314%);stop-opacity:1;"/>
<stop offset="0.9469" style="stop-color:rgb(90.196078%,78.039216%,20.784314%);stop-opacity:1;"/>
<stop offset="0.9726" style="stop-color:rgb(87.45098%,70.588235%,20.392157%);stop-opacity:1;"/>
<stop offset="0.9954" style="stop-color:rgb(84.313725%,61.176471%,19.607843%);stop-opacity:1;"/>
<stop offset="1" style="stop-color:rgb(83.529412%,58.823529%,19.607843%);stop-opacity:1;"/>
</linearGradient>
<radialGradient id="radial0" gradientUnits="userSpaceOnUse" cx="256.0078" cy="225.9443" fx="256.0078" fy="225.9443" r="28.7356" gradientTransform="matrix(1.327281,0,0,1.327281,-289.926102,-250.037666)">
<stop offset="0" style="stop-color:rgb(0%,0%,0%);stop-opacity:1;"/>
<stop offset="1" style="stop-color:rgb(23.921569%,25.490196%,28.235294%);stop-opacity:1;"/>
</radialGradient>
<radialGradient id="radial1" gradientUnits="userSpaceOnUse" cx="256.0078" cy="229.458" fx="256.0078" fy="229.458" r="11.1161" gradientTransform="matrix(1.327281,0,0,1.327281,-289.926102,-250.037666)">
<stop offset="0" style="stop-color:rgb(0%,0%,0%);stop-opacity:1;"/>
<stop offset="1" style="stop-color:rgb(23.921569%,25.490196%,28.235294%);stop-opacity:1;"/>
</radialGradient>
</defs>
<g id="surface1">
<path style=" stroke:none;fill-rule:evenodd;fill:url(#linear0);" d="M 38.953125 14.203125 L 4.84375 72.847656 C -0.046875 81.261719 6.027344 91.808594 15.753906 91.808594 L 83.980469 91.808594 C 93.707031 91.808594 99.78125 81.261719 94.890625 72.847656 L 60.785156 14.203125 C 55.90625 5.832031 43.828125 5.832031 38.953125 14.203125 Z M 38.953125 14.203125 "/>
<path style=" stroke:none;fill-rule:evenodd;fill:url(#radial0);" d="M 83.382812 85.5625 L 16.351562 85.5625 C 13.855469 85.5625 11.617188 84.265625 10.378906 82.097656 C 9.121094 79.933594 9.136719 77.351562 10.390625 75.183594 L 43.902344 17.566406 C 45.15625 15.425781 47.378906 14.144531 49.859375 14.144531 C 52.355469 14.144531 54.582031 15.425781 55.835938 17.566406 L 89.34375 75.183594 C 90.597656 77.351562 90.613281 79.933594 89.359375 82.097656 C 88.117188 84.265625 85.878906 85.5625 83.382812 85.5625 Z M 49.859375 17.167969 C 48.460938 17.167969 47.207031 17.878906 46.507812 19.09375 L 13 76.710938 C 12.289062 77.921875 12.289062 79.375 12.984375 80.589844 C 13.699219 81.816406 14.953125 82.542969 16.351562 82.542969 L 83.382812 82.542969 C 84.777344 82.542969 86.035156 81.816406 86.746094 80.589844 C 87.445312 79.375 87.433594 77.921875 86.730469 76.710938 L 53.226562 19.09375 C 52.527344 17.878906 51.273438 17.167969 49.859375 17.167969 Z M 49.859375 17.167969 "/>
<path style=" stroke:none;fill-rule:evenodd;fill:url(#radial1);" d="M 46.039062 59.746094 L 46.039062 34.003906 L 53.695312 34.003906 L 53.695312 59.746094 Z M 46.039062 75.027344 L 46.039062 66.386719 L 53.695312 66.386719 L 53.695312 75.027344 Z M 46.039062 75.027344 "/>
</g>
</svg>
